<svg xmlns="http://www.w3.org/2000/svg" xmlns:xlink="http://www.w3.org/1999/xlink" width="5293.334" height="2666.667" xmlns:v="https://vecta.io/nano"><style><![CDATA[.B{fill:#fff}.C{fill:#70c0fd}.D{fill:#afdbfe}.E{fill:#ffc0bb}.F{fill:#07085b}.G{fill:#f99893}.H{fill:#3d3a55}.I{fill:#f9537f}.J{fill:#e03268}.K{fill:#4188e4}.L{fill:#09083c}.M{fill:#a2cff6}.N{fill:#daeef7}.O{fill:#ff85a5}]]></style><defs><clipPath id="A"><path d="M28019 130.402c0 .297-.1.598-.1.899 0-.301.1-.602.1-.899m-.1 1c-.1.7-.2 1.297-.2 2 0-.703.1-1.3.2-2m-.2 2l-22.9 175.7h0l22.9-175.7"/></clipPath><path id="B" d="M21543.9 7535.3h-268.8v1578.4h268.8V7535.3"/><path id="C" d="M23549.9 187.102l432.4 266.597 373.5-225.5-130.5-92.797-452.9-63.8s-176.7 22.602-184.5 27.797c-7.8 5.301-38 87.704-38 87.704"/><path id="D" d="M14201.7 12750.9h-1632.5v128.8h1632.5v-128.8"/></defs><g transform="matrix(.133333 0 0 -.133333 0 2666.6667)"><path d="M0 0h39700v20000H0z" class="B"/><path d="M32854 18935.7c-4372.5 2012.7-6909.7-1284.3-11652-1627.3-2285.2-165.3-3668.5 285.6-5005.6 736.5-1437.8 484.9-2822 969.8-5216.5 688.5-4138.14-486.1-5512.59-3588.9-7426.93-6951C1638.62 8420.3 1354.3 9558.4 484.145 6242-386.02 2925.6 3317.59 0 3317.59 0H34832.4c1870.9 137.199 3648.7 1964.7 3742.9 4755.4 180.5 5349.3-1805.6 5237.5-1892.6 7547.5-87 2310.1 543.8 4620.1-3828.7 6632.8" fill="#caf0ff"/><path d="M12543.4 1565.5H6523.79c-104.91 0-189.96 85.1-189.96 190v12987.9c0 104.9 85.05 189.9 189.96 189.9h6019.61c104.9 0 190-85 190-189.9V1755.5c0-104.9-85.1-190-190-190" class="K"/><path d="M12351 10826.6H6717.67v3016.6H12351v-3016.6m0-3291.3H6717.67v3016.6H12351V7535.3m0-3291.2H6717.67v3016.5H12351V4244.1" fill="#142666"/><path d="M25173.9 1565.5H14116.8c-104.9 0-189.9 85.1-189.9 190v12987.9c0 104.9 85 189.9 189.9 189.9h11057.1c104.9 0 190-85 190-189.9V1755.5c0-104.9-85.1-190-190-190" class="K"/><path d="M24680.5 10826.6H14612.8v3016.6h10067.7v-3016.6m0-3291.3H14612.8v3016.6h10067.7V7535.3m0-3291.2H14612.8v3016.5h10067.7V4244.1" fill="#142666"/><path d="M20855.2 4554.1v-310h-1691.9v310h1691.9" class="D"/><path d="M20910.4 4829.7v-275.6h-1513.3v275.6h1513.3" class="B"/><path d="M20677 5105.4v-275.7h-1513.2v275.7H20677" class="C"/><path d="M22342.1 4244.1h-344.3v1889.1h344.3V4244.1" class="D"/><path d="M22695.5 4244.1h-271.8v1569.2h271.8V4244.1" class="C"/><path d="M21546.3 4244.1H21202v1889.1h344.3V4244.1" class="D"/><path d="M21899.6 4244.1h-271.8v1569.2h271.8V4244.1" class="C"/><path d="M16177.6 4244.1h-601V5753h601V4244.1" class="D"/><path d="M15473.9 4244.1h-169.1v1361h169.1v-1361" class="B"/><path d="M15250.4 4244.1h-268.8v1578.3h268.8V4244.1m3621.3 0h-268.8v1578.3h268.8V4244.1" class="C"/><path d="M17213.5 4244.1h-546.6v1361h546.6v-1361" class="B"/><path d="M17615.2 4244.1h-344.3v1889.1h344.3V4244.1" class="D"/><path d="M17968.6 4244.1h-271.8v1569.2h271.8V4244.1m-1404.4 0h-317.1V5925h317.1V4244.1" class="C"/><path d="M18521.4 4244.1H18023v1415.3h498.4V4244.1m-11005.65 1h-169.13v1361.1h169.13V4245.1" class="B"/><path d="M7292.25 4245.1h-268.8v1578.4h268.8V4245.1" class="M"/><path d="M12175.9 4245.1h-601v1509h601v-1509" class="D"/><path d="M11472.2 4245.1h-169.1v1361.1h169.1V4245.1" class="B"/><path d="M11248.7 4245.1h-268.8v1578.4h268.8V4245.1" class="C"/><path d="M9934.96 4245.1h-344.3v1889.2h344.3V4245.1" class="D"/><path d="M9299.78 4555.1v-310h-1691.9v310h1691.9" fill="#b0c1ec"/><path d="M9354.96 4830.8v-275.7H7841.71v275.7h1513.25" class="B"/><path d="M9121.61 5106.5v-275.7H7608.36v275.7h1513.25" class="M"/><path d="M10288.3 4245.1h-271.8v1569.3h271.8V4245.1" class="C"/><path d="M10898.4 4245.1h-498.3v1415.4h498.3V4245.1m4376.8 6581.5h-169.1v1361.1h169.1v-1361.1" class="B"/><path d="M15051.7 10826.6h-268.8V12405h268.8v-1578.4" class="C"/><path d="M19935.4 10826.6h-601v1509h601v-1509" class="D"/><path d="M19231.7 10826.6h-169.1v1361.1h169.1v-1361.1" class="B"/><path d="M19008.2 10826.6h-268.8V12405h268.8v-1578.4" class="C"/><path d="M17694.5 10826.6h-344.3v1889.2h344.3v-1889.2m-635.2 310v-310h-1691.9v310h1691.9" class="D"/><path d="M17114.5 11412.3v-275.7h-1513.3v275.7h1513.3" class="B"/><path d="M16881.1 11688v-275.7h-1513.2v275.7h1513.2m1166.7-861.4H17776v1569.3h271.8v-1569.3" class="C"/><path d="M18657.9 10826.6h-498.3V12242h498.3v-1415.4m8816.7 171.2h-169.2v1361h169.2v-1361" class="B"/><path d="M27251.1 10997.8h-268.8v1578.3h268.8v-1578.3m3956.4 0h-268.8v1578.3h268.8v-1578.3" class="C"/><path d="M29893.8 10997.8h-344.3v1889.1h344.3v-1889.1m-635.2 310v-310h-1691.9v310h1691.9" class="D"/><path d="M29313.8 11583.4v-275.6h-1513.3v275.6h1513.3" class="B"/><path d="M29080.4 11859.1v-275.7h-1513.2v275.7h1513.2" class="M"/><path d="M30247.2 10997.8h-271.9V12567h271.9v-1569.2" class="C"/><path d="M30857.2 10997.8h-498.3v1415.3h498.3v-1415.3" class="B"/><path d="M23517.9 10826.6h-344.3v1889.2h344.3v-1889.2" class="D"/><path d="M23871.3 10826.6h-271.8v1569.3h271.8v-1569.3" class="C"/><path d="M24481.4 10826.6H23983V12242h498.4v-1415.4" class="B"/><path d="M8219.46 10826.6h-601.02v1509h601.02v-1509" class="D"/><path d="M7515.75 10826.6h-169.13v1361.1h169.13v-1361.1" class="B"/><path d="M7292.25 10826.6h-268.8V12405h268.8v-1578.4" class="C"/><path d="M11898 10826.6h-601v1509h601v-1509" class="D"/><path d="M11194.3 10826.6h-169.1v1361.1h169.1v-1361.1" class="B"/><path d="M10970.8 10826.6H10702V12405h268.8v-1578.4" class="C"/><path d="M9255.39 10826.6h-546.66v1361.1h546.66v-1361.1" class="B"/><path d="M9657.08 10826.6h-344.31v1889.2h344.31v-1889.2" class="D"/><path d="M10010.4 10826.6h-271.78v1569.3h271.78v-1569.3m-1404.36 0h-317.11v1681h317.11v-1681" class="C"/><path d="M21284.5 10826.6h-601.1v1509h601.1v-1509" class="D"/><path d="M20580.8 10826.6h-169.2v1361.1h169.2v-1361.1" class="B"/><path d="M20357.3 10826.6h-268.8V12405h268.8v-1578.4" class="C"/><path d="M22320.4 10826.6h-546.7v1361.1h546.7v-1361.1" class="B"/><path d="M22722.1 10826.6h-344.3v1889.2h344.3v-1889.2" class="D"/><path d="M23075.5 10826.6h-271.9v1569.3h271.9v-1569.3m-1404.4 0h-317.2v1681h317.2v-1681" class="C"/><path d="M28414.1 13700.9h-344.3v1889.2h344.3v-1889.2" class="D"/><path d="M28767.4 13700.9h-271.8v1569.3h271.8v-1569.3" class="C"/><path d="M29377.5 13700.9h-498.3v1415.4h498.3v-1415.4m-2161 0h-546.6v1361h546.6v-1361" class="B"/><path d="M27618.2 13700.9h-344.3v1889.2h344.3v-1889.2" class="D"/><path d="M27971.6 13700.9h-271.8v1569.3h271.8v-1569.3m-1404.4 0h-317.1v1681h317.1v-1681" class="C"/><path d="M22471.1 7535.3h-601v1509h601v-1509" class="D"/><path d="M21767.4 7535.3h-169.1v1361.1h169.1V7535.3" class="B"/><use xlink:href="#B" class="C"/><path d="M23820.2 7535.3h-601v1509h601v-1509" class="D"/><path d="M23116.5 7535.3h-169.2v1361.1h169.2V7535.3" class="B"/><g class="C"><use xlink:href="#B" x="1349.1"/><path d="M24206.8 7535.3h-317.1v1681h317.1v-1681"/></g><path d="M10620.5 10826.6h-498.3V12242h498.3v-1415.4" class="B"/><path d="M16177.6 7535.3h-601v1509h601v-1509" class="D"/><path d="M15473.9 7535.3h-169.1v1361.1h169.1V7535.3" class="B"/><use xlink:href="#B" x="-6293.5" class="C"/><path d="M19856.2 7535.3h-601v1509h601v-1509" class="D"/><path d="M19152.5 7535.3h-169.2v1361.1h169.2V7535.3" class="B"/><use xlink:href="#B" x="-2614.9" class="C"/><path d="M17213.5 7535.3h-546.6v1361.1h546.6V7535.3" class="B"/><path d="M17615.2 7535.3h-344.3v1889.2h344.3V7535.3" class="D"/><path d="M17968.6 7535.3h-271.8v1569.3h271.8V7535.3m-1404.4 0h-317.1v1681h317.1v-1681" class="C"/><path d="M18578.7 7535.3h-498.4v1415.4h498.4V7535.3m-10359.24 0h-601.02v1647h601.02v-1647" class="B"/><path d="M7515.75 7535.3h-169.13v1361.1h169.13V7535.3" class="C"/><use xlink:href="#B" x="-14251.65" class="D"/><path d="M11194.3 7535.3h-169.1v1361.1h169.1V7535.3" class="C"/><path d="M10970.8 7535.3H10702v1748.8h268.8V7535.3" class="B"/><path d="M9255.39 7535.3h-546.66v1748.8h546.66V7535.3" class="C"/><path d="M9657.08 7535.3h-344.31v1509h344.31v-1509" class="B"/><path d="M10010.4 7535.3h-271.78v1986.3h271.78V7535.3m-1404.36 0h-317.11v1468.8h317.11V7535.3" class="D"/><path d="M10620.5 7535.3h-498.3v1681h498.3v-1681" class="C"/><path d="M12152.9 7697.2l-469.3-167.5-565.9 1583 469.3 167.5 565.9-1583m8715.1 0l-469.3-167.5-565.8 1583 469.3 167.5 565.8-1583" class="B"/><path d="M21160.3 7619.1l-234.6-83.8-565.9 1583 234.7 83.8 565.8-1583m8955 6172.7l-234.7-83.8-565.8 1583 234.6 83.8 565.9-1583" class="C"/><path d="M27986.7 917.102l-62.9-504.903L27585 386l5.2 468.203 396.5 62.899" class="E"/><path d="M22014.4 5712.5h3278.8L24935 3235.2l-2706.1 440.5-214.5 2036.8" class="I"/><path d="M27070.2 16.402l925.6-6.203c20.2-.199 36.4 15.703 36.3 35.5l-.3 26.602c-.1 19.801-16.7 35.898-36.9 36l-925.6 6.301c-20.2.097-36.5-15.801-36.3-35.5l.2-26.699c.2-19.703 16.7-35.902 37-36" class="H"/><path d="M27983.2 406.703l35.5-273.301c4.3-33.703-14.7-64.101-40-64.004l-880.2 6.004c-22.9.098-45.6 14.199-57.8 40.5-12.6 26.899-15.4 67.399 23.5 121.598 77.9 108.199 336.6 133 462.4 225l410-2.699c22.9-.199 42.6-22.699 46.6-53.098" class="L"/><path d="M27590.2 303.602h0c6.4 3.699 8.6 14.199 4.8 22.199-17.6 37.5-72.4 129-182.1 111-6.4-1.102-10.6-9.301-9.5-17.801l.1-.199c1.1-8.301 6.9-13.699 13-12.699 98.4 15.699 145-64.903 159.3-96.301 3-6.699 9.2-9.399 14.4-6.199M27499.1 269h0c6.3 3.801 8.6 14.301 4.8 22.199-17.6 37.602-72.4 129-182.2 111.102-6.3-1.102-10.5-9.301-9.4-17.801l.1-.297c1.1-8.203 6.9-13.601 13-12.601 98.4 15.699 145-64.899 159.2-96.301 3.1-6.699 9.3-9.399 14.5-6.301m-84.7-32.199h0c6.3 3.801 8.5 14.199 4.8 22.199-17.6 37.602-72.4 129-182.2 111-6.3-1-10.6-9.199-9.4-17.699V352c1.2-8.199 6.9-13.598 13.1-12.699 98.3 15.801 145-64.801 159.2-96.301 3.1-6.699 9.2-9.301 14.5-6.199" class="B"/><g clip-path="url(#A)"><path d="M27995.8 130.402h23.199v178.699h-23.199z" fill="#c5cbca"/></g><path d="M27978.9 69.398h-.2L27743.8 71c62.1 203 168.4 238.801 235.9 238.801 5.6 0 11.1-.199 16.1-.699l22.9-175.7h0c0-.703.1-1.3.2-2v-.101c0-.301.1-.602.1-.899 2.9-32.402-15.6-61.004-40.1-61.004" fill="#090730"/><path d="M29495.6 948.602l28.7-529.5-344.8-2.301-32.9 489.5 349 42.301" class="E"/><path d="M28684.3 7.402l925.5-6.301c20.3-.102 36.5 15.797 36.4 35.602l-.3 26.598c-.2 19.699-16.7 35.902-36.9 36l-925.6 6.301c-20.2.097-36.5-15.801-36.3-35.602l.2-26.598c.2-19.801 16.7-35.902 37-36" class="H"/><path d="M29597.3 397.602l35.4-273.204c4.4-33.699-14.6-64.199-39.9-63.996l-880.2 5.898c-22.9.199-45.6 14.301-57.8 40.597-12.6 26.903-15.4 67.403 23.5 121.504 77.8 108.301 336.5 133.098 462.4 225.098l410-2.801c22.9-.097 42.6-22.597 46.6-53.097" class="L"/><path d="M29204.3 294.5h0c6.3 3.801 8.6 14.301 4.8 22.301-17.6 37.5-72.4 128.898-182.2 111-6.3-1.098-10.5-9.301-9.4-17.801l.1-.301c1.1-8.199 6.8-13.597 13-12.597 98.3 15.699 145-64.903 159.2-96.301 3.1-6.699 9.3-9.399 14.5-6.301m-91.1-34.5h0c6.3 3.801 8.6 14.203 4.8 22.199-17.6 37.5-72.4 129-182.2 111-6.3-1-10.5-9.199-9.4-17.699l.1-.301c1.1-8.199 6.8-13.699 13-12.699 98.3 15.801 145-64.801 159.2-96.301 3.1-6.699 9.2-9.301 14.5-6.199m-84.7-32.199h0c6.3 3.801 8.5 14.199 4.8 22.199-17.6 37.5-72.5 129-182.2 111-6.3-1-10.6-9.199-9.4-17.699V343c1.1-8.301 6.9-13.699 13-12.699 98.4 15.801 145-64.801 159.3-96.301 3-6.699 9.2-9.398 14.5-6.199" class="B"/><path d="M29632.2 101.5v.102-.102m0 .203c0 .098.1.195.1.297 0-.102-.1-.199-.1-.297m.1.297v.301V102m0 .402c1.1 6 1.4 12.5.8 19.098.6-6.598.3-13.098-.8-19.098m.7 19.899v.101-.101m-.3 2.097l-22.8 175.704h0l22.8-175.704" fill="#c5cbca"/><path d="M29593 60.402h-.2 0L29357.9 62c62.1 203 168.4 238.801 235.8 238.801 5.7 0 11.1-.301 16.2-.699l22.8-175.704.3-1.996v-.101c0-.301 0-.598.1-.801.6-6.598.3-13.098-.8-19.098v-.101V102h0c0-.102-.1-.199-.1-.297v-.101-.102c-4.3-23.398-19.9-41.098-39.2-41.098" fill="#090730"/><path d="M33847 1711.9H22631.4c-20.9 0-37.8 16.9-37.8 37.8v115.2c0 20.9 16.9 37.9 37.8 37.9H33847c20.9 0 37.8-17 37.8-37.9v-115.2c0-20.9-16.9-37.8-37.8-37.8" class="H"/><path d="M34566 7376.4c-42.2-3-7302.5-1-9687.6-.3-414 .2-749.5-335.2-749.5-748.9V3570h8975.4l1392.2 1391.2 69.5 2415.2" fill="#ff5b7e"/><path d="M34344.2 4503.6h443.7c80.4 0 145.5 65.1 145.5 145.5v2581.7c0 80.4-65.1 145.5-145.5 145.5h-443.7c-80.4 0-145.6-65.1-145.6-145.5V4649.1c0-80.4 65.2-145.5 145.6-145.5M22228.9 2193.3h9222.2v1833.8h-9222.2V2193.3" class="J"/><path d="M29409.1 4715.1s-1700.6-6.2-1963-347.1-461.9-2643.2 0-3650.199c0 0 598.4-21 734.8 62.898 0 0-42 1699.301-21 2150.301 21 451.1 335.9 514 377.9 555.9 42 42 871.3 1228.2 871.3 1228.2" fill="#2b1c35"/><path d="M32014.1 8245.2l64.5-523.1-518.9 17.8 14.9 598.6 439.5-93.3" class="E"/><path d="M32033 8092.4l-12.8 103.3h.3l12.5-103.3" fill="#e8b5b5"/><path d="M31742.4 8039c-56.9 0-116.3 6.7-174.6 23.9l6.8 275.6 445.6-142.8 12.8-103.3c-66.6-24.9-173.5-53.4-290.6-53.4" fill="#fda19a"/><path d="M30949 9073.5l67.2-356.8 64.8-19.2-16.2 452.6-115.8-76.6" fill="#fee4cb"/><path d="M31110.3 8781.7c37.1-74.7 18.7-159.4-41.2-189.1-60-29.7-138.7 6.8-175.8 81.5-37.2 74.7-18.7 159.3 41.2 189 59.9 29.8 138.6-6.7 175.8-81.4" class="G"/><path d="M31165.7 8332.6c-21.7 31.8-40.5 65.9-56.3 101.8-44.3 96.4-70.7 200.2-86.4 291.3-3.4 19.6-7.9 38.9-12.7 58.1-19.7 77.7-25.6 161.1-13.4 248.3 39.2 280.5 262.7 506.3 543.4 548.2 378.2 56.4 714.7-219.7 742.1-590 38.7 25.4 83.6 33.9 124.8 19.1 79.1-28.4 114.2-131.5 78.6-230.1-35.7-98.6-128.8-155.6-207.8-127.2-11 4-21 9.5-30.3 16.1-8.9-317.5-249.6-579.9-560.3-597.9-152-8.8-294 42.5-404.7 133.9-7.4 5.3-15.1 11.5-23.3 18.8-36.1 32.1-67 69.3-93.7 109.6" class="E"/><path d="M31707.4 8891.4c1.7-31.1 28.4-54.8 59.5-53 31.2 1.8 55 28.4 53.2 59.5-1.8 31-28.5 54.8-59.6 53s-54.9-28.5-53.1-59.5m-482.3-59.7c1.8-31.1 28.5-54.8 59.6-53s54.9 28.5 53.2 59.5c-1.8 31.1-28.5 54.8-59.6 53-31.2-1.8-55-28.4-53.2-59.5" fill="#333"/><path d="M31632.9 8999c27 12.9 52.8 23.5 78.9 31.3 26.1 7.7 52.2 11.9 78.1 12 25.8-.1 52.1-2.5 77.9-10.7l9.9-2.5c3.3-.9 6.4-2.4 9.7-3.5l19.7-6.9c13.3-5 25.9-11.6 40.6-16.3-9 11.7-18.9 23.2-30.1 33.4-12.1 8.7-23.5 19.5-37.8 25.5-26.9 15.3-59 21.9-90.4 21.9-31.7-.3-63-8.7-90-23.5-26.8-15-50.7-35-66.5-60.7m-226.1-24.7c-20.9 21.8-48.6 36.2-78 45.1-29.5 8.5-61.9 10.1-92.9 3.5-30.7-6.8-60.6-20.1-83.6-40.8-12.6-9.1-21.5-22-31.5-33.2-8.7-12.3-15.9-25.6-22.1-39 13.3 7.7 24.1 16.9 36.1 24.6l17.8 11c3 1.8 5.6 3.9 8.7 5.5l9.1 4.6c23.5 13.6 48.6 21.5 73.8 27.3 25.4 5.4 51.8 6.9 78.8 5 27.2-1.9 54.7-6.8 83.8-13.6m-548 523.4s-193.3-15.8 1.9 157.6 731.3 391.8 1089.9 224.9c0 0 62.6 151.7 165.4 121.3s-59-140.7-59-140.7 128.9 10.6 171.3-50.7c31.4-45.2-47.5-51.2-90.8-51.2 74.1-8.8 320.8-138.6 207.1-712.3-50.7 8.6-456.4 341.1-456.4 341.1s-530.7-353.9-468.4-165.5c0 0-633-360.1-553.8-6.4 0 0-261.4-32.1-7.2 281.9" class="F"/><path d="M31494 8989.2c14.5-38 22.7-77.9 26.2-118.7 1.7-20.4 1.8-41.1-.4-62.3-2.6-21.1-6.9-42.9-19.7-64.2l-5.6-7.7-5.1-6.7c-2.1-3.1-5.4-5.8-6.8-9.1-4-6.2-6.4-12.8-7.2-19.6-2.4-13.8 4.5-28.5 14.8-41.5 22.3-26.1 60.5-39.7 100.1-46.5-39-8.9-85.7-5.4-121.4 25.2-17.4 14.7-31.2 38.6-30 65.1.3 6.5 1.1 13 3.3 19.1 1.5 6.4 4.5 11.9 7.5 17.5 2.7 5.9 7.1 10.1 10.7 15.1 2.3 2.8 2.7 3.7 3.9 5.3l3.1 4.3c8.1 12.9 12.7 30.8 16.2 48.9 3.9 18.2 4.6 37.5 6.5 56.8 2.2 38.9 2.6 78.5 3.9 119" class="G"/><path d="M31888.2 9387.7s224.3-354.1 229.3-563.5c0 0 94.7 187.6 250.9 192.4 0 0 50.8 352.7-44.6 573.1l-352.8-75.5-82.8-126.5" class="F"/><path d="M31435.1 7939.6s157.5-246.5 682.3 0c0 0 950 262.2 1023.5-865.4l36.8-1048.9-742.7-11-7.9-219.7-1432.9-1164.3s-850.3 73.4-1023.5 157.3c0 0 304.5 603.1 351.7 739.5 47.2 136.3 81.3 1452.7 131.2 1589.1 49.9 136.3 196.4 804.7 981.5 823.4" fill="#feb546"/><path d="M30729.5 7150.3c-19.1-31.4-34.4-64.6-47.5-98.7-7.2-16.7-12.7-34.1-19.2-51.2l-16.3-52.1c-20.7-69.9-36-141.3-46.9-213.4-13-71.8-18.8-144.7-25-217.4l-6.2-109.5-3.3-109.9c-2.4 36.6-3.5 73.3-5.3 110l1.2 110.1c3.4 73.4 9.4 146.8 21.2 219.5 12.4 72.5 27.6 144.8 51.3 214.6 23.9 69.5 52.2 138.7 96 198" fill="#452b52"/><path d="M29917.4 6369.3c-12.9-.5-532.5 314.2-532.5 314.2l-97.1-20.6 34.5-25.5-58.1 14.6-94.5-14.6 317.6-378.7c5.2-10.5 141.7-63 152.2-68.2s277.9 178.8 277.9 178.8m831.5 251.3l-47.2 29.5-21.7-14.8v27.6l-29.5 20.6-755.8-298.9s242.1-153.5 250-147.5c7.8 5.8 438.9 84.5 446.7 96.3 7.9 11.8 157.5 287.2 157.5 287.2" class="N"/><path d="M30737 6634.5l-856.7-277.2-690.8 300.5c-41.9 18.3-87.9-15.6-82.8-61l131.6-1176.6c2.1-19.6 13.9-36.8 31.3-45.9l663.3-349.4 600.8 222.2 15.5 22.7 77.8 11.8 252 93.2a53.48 53.48 0 0 1 34.6 54.6l-99.1 1153.7c-3.3 38.1-41.2 63.2-77.5 51.4" class="J"/><path d="M30814.5 6583.1c-2.7 31.4-28.9 54-58.5 54.4 29.6-.4 55.8-23 58.5-54.4m-77.5 51.4c.2.1.5.2.8.3-.3-.1-.6-.2-.8-.3m18.2 3h.1 0-.1" fill="#ee6c31"/><path d="M29985.9 5050.9l-105.6 1306.4 856.7 277.2h0c.2.1.5.2.8.3 5.8 1.8 11.7 2.6 17.4 2.7h.1.7c29.6-.4 55.8-23 58.5-54.4h0l98.9-1152.2c2.2-24.8-12.5-47.9-35.9-56.6l-250.5-92.7-77.8-11.8-15.5-22.7-547.8-196.2" fill="#d21e49"/><path d="M29752.5 6216.7l-534.2 233.4 17-242.6 523.6-242.5-6.4 251.7" fill="#c1215b"/><g class="E"><path d="M31023.1 5451.5c2.3 7.8 7 19-3.6 26.9l-8.7 5.8c-42.3 28.3-71.2 62.6-92.8 108.7-4.8 10.2-10.2 26.7-16 33.5-4.1 4.8-5.2-2-5.2-2l9.5-110-127.7-46.5s-223.7-35.2-333.9 13.3c0 0-57.7 40.6-39.4-32.8 1.8-7.1 5.8-13.5 11.6-19.5-8.1-5-16.9-17.9-1.1-67.4.6-1.9 1.4-3.7 2.4-5.6-4-29.4-.9-66.3 31.6-86.1 7.5-24.3 25.4-50.5 66.5-62.3 57-16.4 187.4-34.6 269.9-45.1 72.3-11.1 124.5-16.1 153.3-10.3l30.4-4.9c-.3 8 78.4 120.1 86.7 168.1 8.4 48.1-47.1 89.5-33.5 136.2"/><path d="M31019.5 5478.4s775.1 39.5 991.7 114.2c216.5 74.8 415.9 202 415.9 202v220.2l735.4 11s92.6-673.1-116-751.8c-208.7-78.6-1642.5-204.5-2107-121.9l80 326.3"/></g><path d="M30416.9 5359.8c13.3-15.5 30.4-27.2 48.3-37.1s37.3-17 57-22.5c19.8-4.9 40.1-8.3 60.5-9.2 10.1-.7 20.3-.1 30.5-.2 10.1.7 20.2 1.6 30.3 2.9-20.3.9-40.4 1.6-60.2 4.1-19.9 2.5-39.6 6-58.9 11-19.2 5.1-38 11.7-56.2 19.9-18 8.4-35.6 18.4-51.3 31.1m32.6-90.2c14.5-14.3 32.5-24.7 51.1-33.1 18.6-8.5 38.5-14.1 58.6-18 20.1-3.3 40.6-5.1 61-4.3 10.2 0 20.3 1.4 30.4 2.1l30 5.2c-20.3-.6-40.3-1.5-60.4-.5-20 .8-39.8 2.8-59.5 6.2-19.5 3.6-38.8 8.8-57.6 15.5-18.6 7-36.9 15.5-53.6 26.9m-32.6 159.3c13.3-15.4 30.4-27.2 48.3-37.1s37.3-17 57-22.4c19.8-5 40.1-8.4 60.5-9.2 10.1-.7 20.3-.2 30.5-.3 10.1.8 20.2 1.7 30.3 2.9-20.3 1-40.4 1.6-60.2 4.2-19.9 2.4-39.6 5.9-58.9 10.9-19.2 5.1-38 11.8-56.2 20-18 8.4-35.6 18.3-51.3 31" class="G"/><path d="M32979.5 6024.6l-198.1 1.1-198 2.8-188.6 5c6.4 64.5 11.5 129.1 14.7 193.8 3 68 5.9 135.9 5.6 203.8.1 68-.8 135.9-2.8 203.8-2.7 67.8-5.7 135.7-11.4 203.3l2.6-203.5c.4-67.8-.3-135.6-2.1-203.4l-8.1-203.1c-3.7-67.6-9.8-135.1-17-202.3l-1-9.6 9.5-.2 198.3-3.6 198.3-.3c132.2 1.3 264.4 4.8 396.3 13.1l-198.2-.7" fill="#452b52"/><path d="M29343.1 6053.3c-8.9 18.5-164.9-8.4-166.5 2.7-1.7 11.1 153.5 88.9 149.5 107.4-4.5 20.6-168.6-34.8-179.6-27.2s135.1 128 107.6 143.3c-20.9 11.6-120.1-56.7-166.9-90.5-15-10.8-22.4-29.3-18.9-47.5l63.2-374.6c5.5-32.8 35-56.2 68.3-54.2l5.6.3-8.9 203c47 1.6 134.9 7 127.3 24.3-7 16-82.7 28-129.9 33.9l-.2 3.7c.8 7.4 157.4 58.7 149.4 75.4" class="E"/><path d="M27174.1 2779H23111c-368 0-666.2 298-666.2 665.6v1837.9c0 237.5-192.7 430-430.4 430s-430.4-192.5-430.4-430V3397.3c0-825.4 669.6-1494.5 1495.7-1494.5h1061.6 880.8 1025.2 94.5 1049.8c-22.3 288.5-26.7 588.3-17.5 876.2m981.6 0c-3.5-219.1-1-548 3.6-876.2h2068.6V2779h-2072.2" class="O"/><path d="M31512 5707.2l3060.2-21.9c295.6 0 535.3-239.5 535.3-534.9V3264.3c0-751.9-610-1361.5-1362.6-1361.5h-3172.2l629.8 1128.7c0 31.5 309.5 2675.7 309.5 2675.7" class="I"/><path d="M31550.6 5712.5h0c-237.7 0-430.4-192.5-430.4-430V3444.6c0-12.6-.4-25.2-1.1-37.6l.1-.4h-.1c-19.7-349.9-309.9-627.6-665.1-627.6h-909.4l94.1-876.2h846.7c826 0 1495.6 669.1 1495.6 1494.5v1885.2c0 237.5-192.7 430-430.4 430" class="O"/><path d="M29601.3 2244.6l-56.7 534.4c-38.6 409.3-78.5 678.4-35.6 649.7 147.7 53.4 1063.5 8.5 1610.1-22.1h.1c3.3 90.5-.2 1486.3 1 1559.1-3590.3-298.8-2799.2-913.5-2462.5-3035.7l5.6-27.2 283.9-1279.398s524.9-21 829.3 52.399c.4-3.199-94.6 825.699-175.2 1568.799" fill="#3a2645"/><use xlink:href="#C" fill="#f7aeaa"/><path d="M23549.9 187.102l-109.6-70.5c-50.8-32-28.3-110.403 31.8-110.7L24301.7 2c29.3-.102 53.1 23.402 53.3 52.699l.8 173.5c-553.4-173.199-744-118.801-805.9-41.097" fill="#ff6088"/><use xlink:href="#C" x="471.8" class="E"/><path d="M24021.7 187.102l-109.6-70.5c-50.8-32-28.3-110.403 31.8-110.7L24773.5 2c29.3-.102 53.1 23.402 53.3 52.699l.8 173.5c-553.4-173.199-744-118.801-805.9-41.097" fill="#ff6088"/><path d="M26340.4 7803.9c223 156.2 104.6 218.9 235.6 354.7 102 105.8 133.8 184.9 131.8 262.3 2.5 77.4-28.6 156.7-129.8 263.3-130 136.7-11.2 198.5-232.9 356.4-221.8 157.8-457.5-224.9-457.5-224.9l-243.2-300.5 45.5-155.8-95.3-303.6s522.9-408 745.8-251.9" class="F"/><path d="M24256.6 4829.6s-923.8-346.2-976.3-618.9 325.4-3734.2 488.1-3902.001c0 0 336.7-94.398 601.4 52.5C24634.5 508 24508.5 1651.3 24508.5 1682.8s296.5 1709.7 295.2 1772.7c-1.3 62.9 481.5 818.1 597 923 115.6 104.9 301.9 616.2 301.9 616.2l-1446-165.1" fill="#030321"/><path d="M26978 5088.9s71.9-905.2-181.1-1227.8c-253-322.5-1684.8-329.6-1684.8-329.6l-284.5-3303.301s-380.5 23.504-624.6 70.703c0 0-201 3641.698 58.8 3885.598 259.8 243.8 1440.8 810.2 1440.8 810.2l1275.4 94.2" class="L"/><path d="M25487.5 9420.4s-384.6 146.7-611.8-176.6c-174-247.6-137.6-586.3 74.2-802.5l85.7-87.5s350 376.4 353.8 394.5c3.8 18.2 98.1 672.1 98.1 672.1" class="F"/><g class="E"><path d="M25226.8 7562.1s541.5 99.6 790.5 91.2-150.9-655.4-150.9-655.4l-406.7-9s-249.3 278.2-232.9 310.6-.8 244.6-.8 244.6l.8 18"/><path d="M25836.3 8102.7l97.2-445.6s-150.4-242.7-517.6-93c0 0 52.5 84.7 13.7 274.5-39.7 193.9 406.7 264.1 406.7 264.1"/></g><path d="M25441.3 7659c3.4 31.8 3.9 71.8-2 120.8v-.1c6-48.9 5.5-88.9 2.1-120.7h-.1" fill="#e8b5b5"/><path d="M25881.8 7894l-11.9 54.6.2.2 11.9-54.3c0-.2-.1-.3-.2-.5" fill="#9a5874"/><path d="M25441.4 7659c3.4 31.8 3.9 71.8-2.1 120.7 13.2-.9 26.3-1.4 39.4-1.4 150.9 0 290.3 64.5 391.2 170.3l11.9-54.6c-55.1-142.7-194.4-229.2-440.4-235" fill="#fda19a"/><path d="M25002.7 8508.3c23.4-73.1-5-147.6-63.6-166.4-58.6-18.7-125.1 25.4-148.5 98.6-23.5 73.2 5 147.6 63.6 166.4 58.6 18.7 125.1-25.4 148.5-98.6" class="G"/><path d="M24990.9 8091.8c-15.3 32-27.7 65.6-37 100.5-27 93.8-36.6 192.1-38.3 277.2-.3 18.3-1.7 36.5-3.5 54.6-7.1 73.5-.9 150.3 22.3 228 74.4 249.9 308.8 424.4 569.8 423.6 351.6-1.1 619.2-299.2 592.8-640.1 38.7 17.7 80.8 19.2 116.2 0 67.9-36.8 85.6-135.5 39.5-220.3-46.1-84.9-138.5-123.8-206.4-86.9-9.5 5.1-17.8 11.5-25.3 18.8-52-287.8-307.2-493.4-592.2-466.6-139.3 13.1-261.3 79.5-349.3 178.1-6 5.8-12.1 12.6-18.6 20.4-28.3 34.1-51.2 72.3-70 112.7" class="E"/><path d="M25371.6 8597.5c7.9-33.2 10.2-67.3 8.6-101.6-.9-17.2-3.1-34.4-7.3-51.8-4.5-17.2-10.4-34.8-23.4-51.2l-5.6-5.8-4.9-4.9c-2.1-2.4-5.1-4.2-6.7-6.8-4-4.7-6.7-10-8.1-15.6-3.6-11.2.5-24.1 7.7-36.1 15.6-24.2 45.8-39.8 77.9-49.9-33.4-3-71.8 5.1-98 34.5-12.8 14.2-21.6 35.6-17.7 57.5 1 5.4 2.4 10.7 4.9 15.5 1.9 5.2 5.1 9.5 8.1 13.8 3 4.5 7.1 7.5 10.6 11.3 2.3 2.1 2.7 2.8 3.8 4l3.1 3.3c8.1 9.8 14 24.2 18.9 38.8 5.3 14.7 8 30.7 11.7 46.5 6.2 32.1 10.9 64.9 16.4 98.5" class="G"/><path d="M25560.7 8525.3c-2.7-28.5 18.2-53.8 46.8-56.5 28.5-2.7 53.8 18.3 56.5 46.8s-18.3 53.8-46.8 56.5-53.9-18.3-56.5-46.8m-446.6 12.6c-2.7-28.5 18.2-53.8 46.8-56.5 28.5-2.7 53.8 18.3 56.5 46.8s-18.3 53.9-46.8 56.5c-28.5 2.7-53.9-18.2-56.5-46.8" fill="#333"/><path d="M25397.8 8023.9l-8.4.2c-124.2 5.3-140 119.9-140 119.9 16.7 10.1 33.8 13.9 49.9 13.9 45.8 0 84.2-30 84.2-30 26.6 13.8 52.9 18.2 75.6 18.2 40.5 0 69.7-14 69.7-14s-14.5-108.2-131-108.2" fill="#fda8a3"/><path d="M25597.6 8165.4c-15.1-9.9-30.7-18.8-47-26.3-16.1-7.8-32.6-14.6-49.5-20-33.8-10.8-68.9-17.2-104.1-16.5-35.2.5-69.9 8.5-102.5 22.3-32.4 14.2-62.3 34.3-90.1 57.3 12-13.4 25.2-26 39.5-37.3 14.2-11.4 30-20.9 46.2-29.5 16.4-8.2 33.8-14.7 51.7-19.2a268.26 268.26 0 0 1 54.9-7.2c37.1-.4 73.9 6.8 107.9 20.3s66 31.9 93 56.1" class="G"/><path d="M25512.5 8650.4c27.4 4.4 52.9 7.1 77.8 7.4 24.8.3 48.8-2.4 71.6-8.5 22.6-6.4 45.2-14.6 66.1-27.9 11.3-5.3 20.7-13.8 31.9-20.5 10.8-7.4 20.5-16.3 32.6-23.8-4.7 12.9-10.6 25.6-17.9 37.5-8.4 11.1-16.1 23.3-27.2 32.4-20.1 20.4-47.1 34.2-75.3 41.8-28.3 7.6-58.4 7.5-86 .8-27.6-7-53.6-19.5-73.6-39.2m-230 6.6c-18.2 21.2-43.1 35.9-69.9 45.2-27 9.1-56.9 11.8-85.8 6.7-28.7-5.2-56.8-16.7-78.6-35.3-11.8-8.1-20.6-19.6-29.8-29.9-8.3-11.3-15.3-23.5-21.1-35.8 12.7 6.4 23.1 14.4 34.5 20.8 11.8 5.7 21.8 13.4 33.6 17.8 21.9 11.4 45.1 17.7 68.2 22.1 23.3 4.2 47.4 4.8 72.1 2.4 24.8-2.5 50-7.3 76.8-14" class="F"/><path d="M24611.4 6508s-49.3-1226.9-187.4-1419.1l759.4 172.5v1335.3l-572-88.7" class="E"/><path d="M24935 6340.5s105.7-308.8 124.9-472.9c47.7-407.3-4.1-694.6-88.5-926.5-118.4-325.2 848.1-206.9 867.9-197.1 19.7 9.9 848.1 330.2 848.1 330.2l157.8 458.2v808.1l-44.4 369.5-1865.8-369.5" fill="#02ccc0"/><path d="M27249.6 6710l-608.2-206.9s105.2-972.3 72.3-1110.3c-28.1-117.9-469.1-352.4-748.6-483.7-45-21.1-94.6-30.1-144.1-26.1l-485.7 40.8c-69.6 4.8-260.9-.1-267-24.5-5.7-22.6 149.4 2.3 250-18.5 14.2-2.9 6.6-21.8 3.3-21.9-53.4-2-190.8-7.8-236-22.9-55.4-18.4 140.6-3.8 246.5-23.3 7.5-1.3 13.4-22.3 8-27.7-12.6-12.4-58.7-23.3-185.2-36.2-211.1-21.6-4.6-47.7-4.6-47.7s19 5.4 200.3 30.2c6.7.9 14.1-17.9 4.1-26.7-17.5-15.3-58.1-45.6-112.6-61.7-67.9-20-18.5-37.6-18.5-37.6s128.5 38.2 200.6 43.6c54 4.1 308.4-16.6 412.7-22.6l8 17.9c141.5 4.1 1269.8 33.4 1378.4 732.2 111.7 719.4 26.3 1333.6 26.3 1333.6" class="E"/><path d="M22828.9 6013.7H24767l549.5-1340.3h933.6c26.1 0 47.3-21.1 47.3-47.2s-21.2-47.2-47.3-47.2H23473l-644.1 1434.7" class="F"/><path d="M23790 5248.9c11.4-57.1 61.2-95.3 111.2-85.3 50.1 10 81.3 64.4 69.9 121.5s-61.3 95.3-111.3 85.3-81.3-64.4-69.8-121.5" class="N"/><path d="M25226.8 7562.1s368.1-429.3 790.5 91.2c0 0 461.5 37.5 801.7-203.9 340.3-241.4 544-783.7 544-783.7s-616.4-310.4-769.3-325.2h-1711.1s-261.3 19.7-512.8 147.8c0 0 43.4 862 857 1073.8" fill="#02ccc0"/><path d="M26319.7 6988.9c17.7-52.7 33.3-106 49-159.2 15.9-53.2 30.2-106.9 44.4-160.6l39-162.2c11.7-54.3 23.2-108.9 31.9-164l-13 13c16.8-1.7 37.5-1.1 56.5.4 19.4 1.3 38.9 4.1 58.3 6.9 38.8 6.9 77.7 14.3 115.9 25.1l28.7 7.6 28.5 8.7c18.9 5.9 38 11.4 56.8 18.1l56.4 19.5 55.7 21.5c37.3 14.1 73.8 30.5 110.7 45.6l109.1 49.7 108.1 52.2 107.3 54.5-102.5-63.2-104.8-59.5-107.3-55.1-54.8-25.4c-18.3-8.5-36.5-17.1-55.3-24.4-74-32-150.3-59-228.5-80.5l-29.3-7.9-29.7-6.7c-19.7-5-40-8-60-11.5-20.3-2.8-40.5-5.6-61.1-6.8-20.9-1.4-40.5-2.3-63.6.3l-11.2 1.3-1.8 11.8c-16.6 108.9-38.8 217.5-61.9 325.8l-35.2 162.5-36.3 162.5m-1300.9 124.7c-24.2-63-46.1-126.3-65.6-190.2-19.3-63.9-36.3-128.3-47.6-193.6-6.3-32.5-10.4-65.3-13.1-98.2-3.4-32.8-3.7-65.8-2.5-98.7 2.4-65.8 100-375.5 128.8-436.8-40.6 54.4-146.8 366.7-154 434.8-8.3 68.4-2.6 137.5 8.9 204.6 6.4 33.5 13.9 66.8 23.2 99.5 9.7 32.6 20 65 32.4 96.6 24.4 63.2 53.3 124.8 89.5 182" class="B"/><path d="M26097 8535.6s-613 217-868.8 675.2c0 0 17 402.1 580.4 236.9 390.3-114.5 526.6-642.8 288.4-912.1" class="F"/><path d="M31820.2 8507.3c-45.9-7.5-91.3-12.4-136.6-18.8-45.3-6.2-89.8-13.3-134.9-24.4 40.1 24.2 86.8 35.3 132.5 42 46.1 5.9 92.8 7.6 139 1.2" class="G"/><path d="M22808.5 0h-182.8l455.9 1790 171.7-43.6L22808.5 0M33630 1.102h182.8L33356.9 1791.2l-171.6-43.7L33630 1.102m-1940.8 0h-182.8l455.9 1790.098 171.7-43.7L31689.2 1.102" class="H"/><path d="M29919.3 6379.2l66.6-1328.3c1-19.7-15.6-35.7-35.3-34l-61.9 5.4c-16.5 1.5-29.2 15-29.7 31.4l-39.3 1335.4s50.4 24.8 99.6-9.9" fill="#c1215b"/><path d="M10264.3 2522.4H6383.86v1596.1h3880.44V2522.4" class="J"/><path d="M3402.81 7482.6c48.37-3.4 3887.83 0 3887.83 0V3839.9H4801.75L3469.38 5171.2l-66.57 2311.4" fill="#ff5b7e"/><path d="M10186.4 5436s-2662.73-159-2662.73 0c0 158.9 0-692.7 0-692.7s1302.27-233.4 1448.81-233.4 828.84-361.3 919.25-391.4c90.42-30.2 284.67 776.7 294.67 783.6 10.1 6.9 0 533.9 0 533.9" class="I"/><path d="M3605.78 4733.3h-405.93c-82.1 0-148.65 66.5-148.65 148.7v2451.9c0 82.1 66.55 148.7 148.65 148.7h405.93c82.09 0 148.64-66.6 148.64-148.7V4882c0-82.2-66.55-148.7-148.64-148.7" class="J"/><path d="M6288.57 5436H3144.15c-282.96 0-512.35-229.2-512.35-512V3119.1c0-719.7 583.85-1303 1304.05-1303l3237.63-19.9s-224.74 59.9-261.7 124.5l-542.84 975.6c0 30.1-80.37 2539.7-80.37 2539.7" class="I"/><path d="M9774.56 5024.4V3265.6c0-351.9-285.45-637.1-637.57-637.1H7338.02c-352.11 0-637.56 285.2-637.56 637.1v1758.8c0 227.3-184.41 411.6-411.89 411.6s-411.89-184.3-411.89-411.6V3220.2c0-789.9 640.85-1430.2 1431.38-1430.2h1858.9c790.53 0 1431.34 640.3 1431.34 1430.2v1804.2c0 227.3-184.4 411.6-411.9 411.6-227.44 0-411.84-184.3-411.84-411.6" class="O"/><path d="M9825.95 953.301l65.5-525.399 352.65-27.402-5.5 487.301-412.65 65.5" class="E"/><path d="M10779.9 15.902l-963.35-6.504c-21.06-.098-37.98 16.402-37.79 37.004l.24 27.699c.18 20.598 17.4 37.3 38.45 37.5l963.35 6.5c21 .097 38-16.399 37.8-37l-.3-27.699c-.1-20.601-17.4-37.402-38.4-37.5" class="H"/><path d="M9829.64 422.102l-36.94-284.403c-4.55-35.097 15.25-66.797 41.6-66.597l916.1 6.199c23.8.102 47.4 14.801 60.2 42.097 13 28.102 16 70.204-24.5 126.602-81.1 112.699-350.3 138.5-481.2 234.199l-426.78-2.797c-23.83-.203-44.35-23.601-48.48-55.3" class="J"/><path d="M10238.6 314.801h0c-6.6 3.898-8.9 14.801-5 23.101 18.3 39.098 75.4 134.2 189.6 115.5 6.6-1.101 11-9.601 9.8-18.402v-.301c-1.2-8.597-7.2-14.297-13.6-13.199-102.3 16.402-150.9-67.5-165.7-100.199-3.2-7-9.6-9.801-15.1-6.5m94.8-36h0c-6.6 4-8.9 14.801-5 23.199 18.4 39 75.4 134.199 189.6 115.5 6.6-1.098 11-9.598 9.8-18.5v-.301c-1.2-8.5-7.2-14.199-13.6-13.199-102.3 16.398-150.9-67.398-165.7-100.199-3.2-7-9.6-9.699-15.1-6.5m88.2-33.5h0c-6.6 3.902-8.9 14.801-5 23.101 18.3 39.098 75.4 134.297 189.6 115.5 6.6-1 11-9.601 9.8-18.402v-.301c-1.2-8.597-7.2-14.199-13.6-13.199-102.3 16.402-150.9-67.5-165.7-100.199-3.2-7-9.6-9.801-15.1-6.5" class="B"/><path d="M9154.38 942.102l155.88-507 358.87-2.5-62.5 370.199-452.25 139.301" class="E"/><path d="M5974.79 8632.6s-107.18 540.5 206.06 730.6 636.01 156.4 851.74 28.5c215.74-128 331.28-551.9 223.06-788.1l-722.74 254.3-558.12-225.3" class="F"/><path d="M10184.6 6.5L9221.26 0c-21.06-.098-37.98 16.402-37.8 37l.24 27.699c.19 20.602 17.4 37.403 38.46 37.5l963.34 6.5c21.1.102 38-16.398 37.8-36.996L10223 44c-.1-20.598-17.3-37.398-38.4-37.5" class="H"/><path d="M9234.36 412.699l-36.95-284.398c-4.55-35.102 15.24-66.801 41.6-66.598l916.09 6.199c23.8.098 47.5 14.797 60.2 42.098 13 28.102 16 70.199-24.5 126.602-81 112.699-350.28 138.5-481.24 234.199l-426.73-2.899c-23.83-.101-44.36-23.504-48.47-55.203" class="I"/><path d="M9643.33 305.402h0c-6.59 3.899-8.92 14.797-5.01 23.098 18.33 39.102 75.39 134.199 189.61 115.5 6.6-1.098 11.01-9.602 9.8-18.5l-.04-.199c-1.17-8.598-7.17-14.199-13.55-13.199-102.38 16.398-150.91-67.5-165.75-100.204-3.17-6.996-9.59-9.796-15.06-6.496m94.81-36.004h0c-6.58 4.004-8.91 14.805-5.01 23.204 18.33 39 75.4 134.199 189.62 115.5 6.6-1.102 11-9.602 9.8-18.5l-.04-.301c-1.16-8.5-7.17-14.199-13.55-13.199-102.37 16.398-150.91-67.403-165.75-100.2-3.16-7-9.59-9.703-15.07-6.504m88.19-33.496h0c-6.58 3.899-8.91 14.797-5 23.098 18.32 39.102 75.38 134.301 189.57 115.602 6.6-1.102 11-9.7 9.8-18.5v-.301c-1.2-8.602-7.2-14.199-13.6-13.199-102.32 16.398-150.86-67.5-165.7-100.2-3.17-7-9.59-9.8-15.07-6.5" class="B"/><path d="M9238.79 61.703c-23.68 0-42.02 25.699-42.04 56.399 0 3.398.21 6.699.66 10.199h0l23.76 182.898c5.28.403 10.9.699 16.81.699 70.16 0 180.84-37.296 245.54-248.597l-244.73-1.598" fill="#f24665"/><path d="M6305.94 8140.8l-52.37-603.6 547.91 25.5-63.17 534.4-432.37 43.7" class="E"/><path d="M6768.35 7843l-30.04 254.1-432.37 43.7-18.14-209c85.97-83.3 240.56-169.6 480.55-88.8m335.96 704.4c-32.95-66.2-15.47-140.7 39.04-166.3s125.4 7.3 158.34 73.5c32.95 66.3 15.47 140.7-39.04 166.4-54.51 25.6-125.4-7.3-158.34-73.6" class="G"/><path d="M7058.29 8150.9c19.33 28.3 36.08 58.5 49.98 90.3 39.2 85.4 62.16 177.2 75.54 257.7 2.87 17.3 6.77 34.3 10.98 51.4 17.06 68.6 21.6 142.3 9.76 219-38.09 247-242.48 443.9-496.96 478.1-342.83 46-644.83-200.7-666.16-527.5-35.26 22-76.01 29.1-113.18 15.6-71.3-25.8-102.17-117-68.95-203.6s117.95-135.9 189.24-110.1c9.91 3.6 18.94 8.6 27.22 14.5 11-279.9 231.39-509 512.8-521.8 137.62-6.2 265.65 40.4 365.05 122.1 6.6 4.7 13.57 10.3 20.93 16.8 32.32 28.6 59.93 61.7 83.75 97.5" class="E"/><path d="M6562.82 8638.3c-1.32-27.4-25.24-48.6-53.44-47.3-28.19 1.3-49.98 24.5-48.65 51.9 1.32 27.5 25.24 48.6 53.44 47.3 28.19-1.2 49.97-24.5 48.65-51.9m437.03-47.9c-1.31-27.4-25.24-48.6-53.43-47.3-28.2 1.3-49.98 24.5-48.66 51.9 1.32 27.5 25.25 48.6 53.44 47.3 28.19-1.2 49.97-24.5 48.65-51.9" fill="#333"/><path d="M6626.98 8750.5c-26.02 7.8-50.51 13.8-74.73 17.4-24.18 3.6-47.88 4.3-70.98 1.5-22.96-3-46.06-7.8-68.27-17.6-11.79-3.5-22.07-10.3-34-15.2-11.5-5.5-22.16-12.6-35.04-18.1 6.44 11.5 13.94 22.8 22.69 33.1 9.63 9.4 18.87 20 30.91 27.1 22.47 16.6 50.71 26.1 79.19 29.6 28.67 3.3 57.96-.7 83.97-10.9 25.87-10.3 49.55-25.6 66.26-46.9" class="F"/><path d="M9780.79 1646h-6025.4c-21.34 0-38.64 17.3-38.64 38.7V1790c0 21.4 17.3 38.7 38.64 38.7h6025.4c21.34 0 38.63-17.3 38.63-38.7v-105.3c0-21.4-17.29-38.7-38.63-38.7" class="H"/><path d="M6852.09 8725.8c20.64 17.8 46.94 28.4 74.38 33.6 27.54 5 57.09 3.5 84.54-5.2 27.25-8.8 53.05-23.5 71.77-44 10.39-9.3 17.33-21.4 24.92-32.4 6.51-11.8 11.63-24.2 15.63-36.7-11.53 7.8-20.58 16.7-30.75 24.3-10.73 7-19.46 15.7-30.31 21.4-19.82 13.8-41.53 22.8-63.45 30.1-22.12 7.1-45.49 10.9-69.94 11.9-24.5 1-49.7-.2-76.79-3m-802.52-13.9c-32.46 29.5-58.31 28.4-58.31 28.4l22.17 172.7 59.56 102.3 236.18 279.3c7.92 6.6 177.15 91.2 187.53 95.5 10.38 4.2 240.98-38.6 240.98-38.6s411.19 65.6 334.03-139.2c-77.16-204.7-379.42-302.1-394.34-292.3 50.25 44.6 60.52 176.4 60.52 176.4-219.86-214.3-625.22-362.3-688.32-384.5" class="F"/><path d="M6743.52 8642.4c14.92-23.4 27.66-47.9 39.19-73 11.58-25.1 21.68-50.8 29.58-77.6 3.66-13.5 6.96-27.1 7.95-41.9.12-3.7.08-7.5-.39-11.5-.22-2-.8-4.1-1.24-6.2-.91-2.2-1.47-4.4-3.12-6.7a94.88 94.88 0 0 0-2.63-3.3l-2.22-1.8c-1.47-1.2-2.89-2.5-4.42-3.6-3.09-2.1-6.13-4.3-9.33-6-12.57-7.5-25.87-12.9-39.31-17.4-13.51-4.5-27.18-8.2-41.17-10.5 25.45 11.7 51.11 23.4 72.94 38.8 2.77 1.9 5.17 4 7.69 6l3.47 3.2 1.68 1.6.45.9c1.7 2.7 1.9 9.5 1.24 15.5-1.3 12.5-4.48 25.6-8.27 38.4-7.28 25.9-16.53 51.5-25.42 77.3l-26.67 77.8" class="G"/><path d="M6859.06 7686s429.05-18.1 653.33-291.1c224.28-272.9 860.39-2950.3 860.39-2950.3l-715.39 76.5-930.26 1304.5c0 32.8 131.93 1860.4 131.93 1860.4" fill="#050849"/><path d="M6015.89 7681.7l833.95.8c12.69-.8 75.7 5.9 98.89-18.4 23.19-24.2 63.21-158-51.02-223.5-114.25-65.5 128.57-68.2-181.3-122.8-309.88-54.6-217.01-128.2-451.9-32.7-234.9 95.5-265.16 54.6-273.25 139.2-8.08 84.6 24.63 257.4 24.63 257.4" class="E"/><path d="M7648.17 6466.3c-47.64 429.7-162.9 717.8-292.12 910.9-96.59 144.3-242.89 244.6-407.32 286.9-.74-2.8-41.61-155.4-252.67-179.8-213.05-24.6-672 197.9-680.17 197.4l-.01.1c-237.09-14.8-442.12-59.3-548.93-183.9-213.03-248.3-917.73-1982.6-901.34-2227.6s204.88-245 204.88-245l1929.97-.9v-443.9l1399.97-95.6c-39.03 25.8-317.3 764.2-452.26 1981.4" class="F"/><path d="M7803.23 6634.9c12.32-.4 509.6 300.7 509.6 300.7l92.93-19.7-32.98-24.3 55.58 13.9 90.41-13.9-303.89-362.5c-5.02-10.1-135.62-60.3-145.67-65.3-10.04-5-265.98 171.1-265.98 171.1m-795.76 240.5l45.21 28.2 20.71-14.1v26.4l28.26 19.7 723.32-286.1s-231.69-146.8-239.23-141.1c-7.53 5.6-420.05 80.9-427.58 92.2s-150.69 274.8-150.69 274.8" class="N"/><path d="M7018.91 6888.7l819.8-265.3 661.11 287.7c40.13 17.4 84.14-15 79.28-58.5l-125.93-1126c-2.1-18.7-13.34-35.2-30.02-43.9l-634.77-334.4-574.95 212.7-14.8 21.7-74.54 11.3-241.08 89.2c-21.54 8-35.1 29.4-33.14 52.2l94.81 1104.1c3.13 36.5 39.39 60.5 74.23 49.2" fill="#feb546"/><path d="M7018.91 6888.8c-34.84 11.2-71.1-12.8-74.23-49.3L6850 5736.9c-2.04-23.7 12.04-45.9 34.39-54.2l239.7-88.7 74.53-11.3 14.81-21.7 386.72-143.1 177.24 33.7 61.32 1171.8-819.8 265.4m942.17-399.9l511.23 223.4-16.32-232.2-501.05-232.1 6.14 240.9" fill="#f4a640"/><path d="M8237.2 4577.7s1731.01 54.6 2124.3-316.6c393.3-371.2 11-3112-54.6-3368.198 0 0-240.4-223.402-524.42-136.101-284.06 87.301-174.8 1309.999-174.8 1309.999s32.77 1168.1-10.93 1331.9c-43.7 163.7-644.6 283.8-644.6 283.8s-928.66 644.1-874.03 644.1c54.62 0 159.08 251.1 159.08 251.1" fill="#2b1c35"/><path d="M6700.46 4630.2s2317.24 275 2634.08-773S9891.73 735 9891.73 735s-305.91-185.602-721.07 0c0 0-587.21 2227-807.1 2445.4-219.89 218.3-1663.1 85.2-1663.1 85.2v1364.6" fill="#3a2645"/><path d="M7296.06 5296.5c-8.83 50.1-21.34 99.3-35.52 147.9-14.42 48.7-30.35 96.6-49.5 143.9l-2.14 5.3-5.81.3-1546.18 77.4c5.78 46.9 20.08 92.9 35.65 138 16.44 46.8 35.18 92.8 54.78 138.5 39.47 91.2 82.76 180.7 127.53 269.5 89.92 177.4 185.57 352 285.16 524.2l-1.59 1c-100.8-171.6-197.67-345.5-288.87-522.5-45.42-88.5-89.38-177.9-129.58-269-19.97-45.6-39.08-91.7-55.96-138.6-16.55-47-31.92-94.9-37.73-145.3l-.59-5 5.24-.3 1545.18-85.8c17.76-44.5 33.16-90.5 46.82-136.7 14.01-48.1 26.35-96.8 35.03-146 8.47-49.3 15.6-98.9 15.76-148.7.57-47.5-3.14-95.3-15.69-140.8l-457.63 13.3-232.23 6.5-232.32 3.9-.07-2.2 232.12-9.2 232.11-9.9 464.23-19.2 6.37-.3 1.87 6.1c15.23 49.5 19.9 101.1 19.67 152.1-.2 51.1-7.49 101.6-16.11 151.6" class="B"/><path d="M7785.41 6639.5l-59.28-1234.7 90.49 13.1 63.71 1221.6s-47.83 33.2-94.92 0" fill="#ed9935"/><path d="M7851.42 5471.5c-114.72-50.5-347.5-13.8-347.5-13.8l-176.23 61.2-74.55-50.3 7.4-24.2c14.18-48.6 26.69-97.8 35.52-147.9 8.62-50 15.91-100.5 16.11-151.6.04-8.4-.29-16.7-.54-25.1l24.81 9.2c29.98-6 84.27-.9 159.51 10.7 85.89 11 221.66 29.9 280.98 47 42.77 12.3 61.35 39.5 69.2 64.8 33.82 20.6 36.98 59 32.9 89.6.96 2 1.8 3.9 2.43 5.9 16.5 51.5 7.31 64.9-1.13 70.1 6.03 6.2 10.23 13 12.06 20.3 19.12 76.4-40.97 34.1-40.97 34.1" class="E"/><path d="M7880.33 5345.2c-13.8-16.1-31.64-28.3-50.22-38.6-18.66-10.3-38.82-17.7-59.33-23.4-20.67-5.2-41.75-8.7-62.97-9.6-10.57-.7-21.2-.1-31.76-.3a820.29 820.29 0 0 0-31.53 3c21.1 1.1 41.98 1.8 62.69 4.4 20.69 2.5 41.14 6.2 61.22 11.4 20.03 5.3 39.59 12.2 58.5 20.8 18.79 8.7 37.04 19 53.4 32.3m-33.94-93.9c-15.03-14.9-33.78-25.7-53.11-34.5-19.42-8.8-40.1-14.6-60.99-18.6-21.02-3.5-42.3-5.4-63.53-4.6-10.6.1-21.15 1.5-31.68 2.2-10.46 1.6-20.89 3.4-31.2 5.5 21.11-.6 41.99-1.6 62.84-.6 20.82.9 41.5 2.9 61.92 6.5 20.39 3.8 40.44 9.1 59.97 16.2 19.42 7.2 38.43 16 55.78 27.9m33.94 165.8c-13.8-16.1-31.64-28.3-50.22-38.6-18.66-10.3-38.82-17.7-59.33-23.4-20.67-5.1-41.75-8.6-62.97-9.5-10.57-.8-21.2-.2-31.76-.3-10.55.8-21.08 1.7-31.53 3 21.1 1 41.98 1.7 62.69 4.3 20.69 2.6 41.14 6.2 61.22 11.4 20.03 5.4 39.59 12.3 58.5 20.8 18.79 8.8 37.04 19.1 53.4 32.3M6536.31 8281.9c48.09-5.6 94.91-13.8 141.98-20.4 47.1-6.8 93.68-12.5 142.01-14.4-47.15-12.6-96.96-10.3-144.65-3.8-47.79 7.3-94.97 19-139.34 38.6" class="G"/><g class="H"><path d="M3840.38 3.5h-174.94l436.3 1713.1 164.3-41.8L3840.38 3.5m3207.74 0h-174.94l436.3 1713.1 164.3-41.8L7048.12 3.5"/><path d="M5971.3 3.5h174.94l-436.3 1713.1-164.3-41.8L5971.3 3.5"/></g><path d="M31357.4 13393.4H25982v307.5h5375.4v-307.5m790.6-2618.9h-5375.5v307.5H32148v-307.5" class="K"/><g class="L"><path d="M12645.4 1461.7H12493v12442.4h152.4V1461.7m1632.5 0h-152.4v12442.4h152.4V1461.7"/><path d="M14201.7 13585.9h-1632.5v128.9h1632.5v-128.9"/><use xlink:href="#D"/><use xlink:href="#D" y="-835.1"/><use xlink:href="#D" y="-1670.2"/><use xlink:href="#D" y="-2505.3"/><use xlink:href="#D" y="-3340.4"/><use xlink:href="#D" y="-4175.5"/><path d="M14201.7 7740.3h-1632.5v128.9h1632.5v-128.9m0-835.1h-1632.5v128.9h1632.5v-128.9m0-835.1h-1632.5V6199h1632.5v-128.9"/><use xlink:href="#D" y="-7515.8"/><path d="M14201.7 4400h-1632.5v128.8h1632.5V4400"/><use xlink:href="#D" y="-9186"/></g><path d="M34661 15492.9c0-814.4-660.7-1474.5-1475.7-1474.5s-1475.7 660.1-1475.7 1474.5 660.7 1474.6 1475.7 1474.6 1475.7-660.2 1475.7-1474.6" class="K"/><path d="M34482.6 15574.3c45-716-499.4-1332.8-1215.9-1377.7s-1333.8 499-1378.8 1215c-44.9 715.9 499.5 1332.7 1216 1377.6 716.5 45 1333.7-499 1378.7-1214.9" class="B"/><g fill="#b0c1ec"><path d="M32346.3 15516.3v-33.6h-437.6v33.6h437.6m2118.2 0v-33.6h-437.6v33.6h437.6m-1264.3 806h-33.6v437.2h33.6v-437.2m0-2108.1h-33.6v437.2h33.6v-437.2m21.3 1278.7c0-20-16.2-36.2-36.2-36.2s-36.2 16.2-36.2 36.2 16.2 36.2 36.2 36.2 36.2-16.2 36.2-36.2"/><path d="M33185.3 15476.7c-4.2 0-8.3 1.6-11.5 4.8l-650.9 650.3c-6.3 6.3-6.3 16.6 0 22.9 6.4 6.3 16.6 6.3 22.9 0l650.9-650.3c6.3-6.4 6.3-16.6 0-22.9-3.1-3.2-7.3-4.8-11.4-4.8"/><path d="M33394.5 14835.7c-2.6 1.3-4.8 3.7-5.8 6.8l-210.4 634.9a11.72 11.72 0 0 0 7.5 14.9c6.1 2.1 12.8-1.3 14.8-7.5l210.4-634.9a11.72 11.72 0 0 0-7.5-14.9c-3.1-1-6.3-.7-9 .7"/></g></g></svg>